v 0.000000 0.382683 -0.923880
v 0.000000 0.000000 -1.000000
v 0.000000 -0.382683 -0.923880
v 0.000000 -0.923880 -0.382683
v 0.146447 0.923880 -0.353553
v 0.270598 0.707107 -0.653281
v 0.353553 0.382683 -0.853553
v 0.382683 0.000000 -0.923880
v 0.353553 -0.382683 -0.853553
v 0.270598 -0.707107 -0.653281
v 0.146447 -0.923880 -0.353553
v 0.270598 0.923880 -0.270598
v 0.500000 0.707107 -0.500000
v 0.653282 0.382683 -0.653281
v 0.707107 0.000000 -0.707107
v 0.653282 -0.382683 -0.653281
v 0.500000 -0.707107 -0.500000
v 0.270598 -0.923880 -0.270598
v 0.353553 0.923880 -0.146447
v 0.653281 0.707107 -0.270598
v 0.853553 0.382683 -0.353553
v 0.923880 0.000000 -0.382683
v 0.853553 -0.382683 -0.353553
v 0.653281 -0.707107 -0.270598
v 0.353553 -0.923880 -0.146447
v 0.382683 0.923880 0.000000
v 0.707107 0.707107 0.000000
v 0.923880 0.382683 0.000000
v 1.000000 0.000000 0.000000
v 0.923880 -0.382683 0.000000
v 0.707107 -0.707107 0.000000
v 0.382683 -0.923880 0.000000
v 0.353553 0.923880 0.146447
v 0.653281 0.707107 0.270598
v 0.853553 0.382683 0.353554
v 0.923879 0.000000 0.382684
v 0.853553 -0.382683 0.353554
v 0.653281 -0.707107 0.270598
v 0.353553 -0.923880 0.146447
v 0.270598 0.923880 0.270598
v 0.500000 0.707107 0.500000
v 0.653281 0.382683 0.653282
v 0.707107 0.000000 0.707107
v 0.653281 -0.382683 0.653282
v 0.500000 -0.707107 0.500000
v 0.270598 -0.923880 0.270598
v 0.146447 0.923880 0.353553
v 0.270598 0.707107 0.653281
v 0.353553 0.382683 0.853553
v 0.382683 0.000000 0.923880
v 0.353553 -0.382683 0.853553
v 0.270598 -0.707107 0.653281
v 0.146447 -0.923880 0.353553
v -0.000000 0.923880 0.382683
v -0.000000 0.707107 0.707107
v -0.000000 0.382683 0.923879
v -0.000000 0.000000 1.000000
v -0.000000 -0.382683 0.923879
v -0.000000 -0.707107 0.707107
v -0.000000 -0.923880 0.382683
v 0.000000 -1.000000 0.000000
v 0.000000 1.000000 0.000000
v -0.146447 0.923880 0.353553
v -0.270598 0.707107 0.653281
v -0.353554 0.382683 0.853553
v -0.382684 0.000000 0.923879
v -0.353554 -0.382683 0.853553
v -0.270598 -0.707107 0.653281
v -0.146447 -0.923880 0.353553
v -0.270598 0.923880 0.270598
v -0.500000 0.707107 0.500000
v -0.653282 0.382683 0.653281
v -0.707107 0.000000 0.707106
v -0.653282 -0.382683 0.653281
v -0.500000 -0.707107 0.500000
v -0.270598 -0.923880 0.270598
v -0.353553 0.923880 0.146446
v -0.653281 0.707107 0.270598
v -0.853553 0.382683 0.353553
v -0.923880 0.000000 0.382683
v -0.853553 -0.382683 0.353553
v -0.653281 -0.707107 0.270598
v -0.353553 -0.923880 0.146446
v -0.382683 0.923880 -0.000000
v -0.707107 0.707107 -0.000000
v -0.923879 0.382683 -0.000000
v -1.000000 0.000000 -0.000001
v -0.923879 -0.382683 -0.000000
v -0.707107 -0.707107 -0.000000
v -0.382683 -0.923880 -0.000000
v -0.353553 0.923880 -0.146447
v -0.653281 0.707107 -0.270598
v -0.853553 0.382683 -0.353554
v -0.923879 0.000000 -0.382684
v -0.853553 -0.382683 -0.353554
v -0.653281 -0.707107 -0.270598
v -0.353553 -0.923880 -0.146447
v -0.270598 0.923880 -0.270598
v -0.500000 0.707107 -0.500000
v -0.653281 0.382683 -0.653282
v -0.707106 0.000000 -0.707107
v -0.653281 -0.382683 -0.653282
v -0.500000 -0.707107 -0.500000
v -0.270598 -0.923880 -0.270598
v -0.146446 0.923880 -0.353554
v -0.270598 0.707107 -0.653281
v -0.353553 0.382683 -0.853553
v -0.382683 0.000000 -0.923880
v -0.353553 -0.382683 -0.853553
v -0.270598 -0.707107 -0.653281
v -0.146446 -0.923880 -0.353554
v 0.000000 0.923880 -0.382683
v 0.000000 0.707107 -0.707107
v 0.000000 -0.707107 -0.707107
vn 0.1098 0.8264 -0.5522
vn 0.1098 -0.8264 -0.5522
vn 0.1915 -0.1915 -0.9626
vn 0.1632 0.5481 -0.8203
vn 0.0388 0.9800 -0.1949
vn 0.0388 -0.9800 -0.1949
vn 0.1632 -0.5481 -0.8203
vn 0.1915 0.1915 -0.9626
vn 0.5453 -0.1915 -0.8161
vn 0.4647 0.5481 -0.6954
vn 0.1104 0.9800 -0.1653
vn 0.1104 -0.9800 -0.1653
vn 0.4647 -0.5481 -0.6954
vn 0.5453 0.1915 -0.8161
vn 0.3128 0.8264 -0.4681
vn 0.3128 -0.8264 -0.4681
vn 0.1653 -0.9800 -0.1104
vn 0.6954 -0.5481 -0.4647
vn 0.8161 0.1915 -0.5453
vn 0.4681 0.8264 -0.3128
vn 0.4681 -0.8264 -0.3128
vn 0.8161 -0.1915 -0.5453
vn 0.6954 0.5481 -0.4647
vn 0.1653 0.9800 -0.1104
vn 0.9626 0.1915 -0.1915
vn 0.5522 0.8264 -0.1098
vn 0.5522 -0.8264 -0.1098
vn 0.9626 -0.1915 -0.1915
vn 0.8203 0.5481 -0.1632
vn 0.1949 0.9800 -0.0388
vn 0.1949 -0.9800 -0.0388
vn 0.8203 -0.5481 -0.1632
vn 0.5522 -0.8264 0.1098
vn 0.9626 -0.1915 0.1915
vn 0.8203 0.5481 0.1632
vn 0.1949 0.9800 0.0388
vn 0.1949 -0.9800 0.0388
vn 0.8203 -0.5481 0.1632
vn 0.9626 0.1915 0.1915
vn 0.5522 0.8264 0.1098
vn 0.6954 0.5481 0.4647
vn 0.1653 0.9800 0.1104
vn 0.1653 -0.9800 0.1104
vn 0.6954 -0.5481 0.4647
vn 0.8161 0.1915 0.5453
vn 0.4681 0.8264 0.3128
vn 0.4681 -0.8264 0.3128
vn 0.8161 -0.1915 0.5453
vn 0.1104 -0.9800 0.1653
vn 0.4647 -0.5481 0.6954
vn 0.5453 0.1915 0.8161
vn 0.3128 0.8264 0.4681
vn 0.3128 -0.8264 0.4681
vn 0.5453 -0.1915 0.8161
vn 0.4647 0.5481 0.6954
vn 0.1104 0.9800 0.1653
vn 0.1098 0.8264 0.5522
vn 0.1098 -0.8264 0.5522
vn 0.1915 -0.1915 0.9626
vn 0.1632 0.5481 0.8203
vn 0.0388 0.9800 0.1949
vn 0.0388 -0.9800 0.1949
vn 0.1632 -0.5481 0.8203
vn 0.1915 0.1915 0.9626
vn -0.1098 -0.8264 0.5522
vn -0.1915 -0.1915 0.9626
vn -0.1632 0.5481 0.8203
vn -0.0388 0.9800 0.1949
vn -0.0388 -0.9800 0.1949
vn -0.1632 -0.5481 0.8203
vn -0.1915 0.1915 0.9626
vn -0.1098 0.8264 0.5522
vn -0.1104 0.9800 0.1653
vn -0.1104 -0.9800 0.1653
vn -0.4647 -0.5481 0.6954
vn -0.5453 0.1915 0.8161
vn -0.3128 0.8264 0.4681
vn -0.3128 -0.8264 0.4681
vn -0.5453 -0.1915 0.8161
vn -0.4647 0.5481 0.6954
vn -0.6954 -0.5481 0.4647
vn -0.8161 0.1915 0.5453
vn -0.4681 0.8264 0.3128
vn -0.4681 -0.8264 0.3128
vn -0.8161 -0.1915 0.5453
vn -0.6954 0.5481 0.4647
vn -0.1653 0.9800 0.1104
vn -0.1653 -0.9800 0.1104
vn -0.5522 -0.8264 0.1098
vn -0.9626 -0.1915 0.1915
vn -0.8203 0.5481 0.1632
vn -0.1949 0.9800 0.0388
vn -0.1949 -0.9800 0.0388
vn -0.8203 -0.5481 0.1632
vn -0.9626 0.1915 0.1915
vn -0.5522 0.8264 0.1098
vn -0.9626 -0.1915 -0.1915
vn -0.8203 0.5481 -0.1632
vn -0.1949 0.9800 -0.0388
vn -0.1949 -0.9800 -0.0388
vn -0.8203 -0.5481 -0.1632
vn -0.9626 0.1915 -0.1915
vn -0.5522 0.8264 -0.1098
vn -0.5522 -0.8264 -0.1098
vn -0.1653 -0.9800 -0.1104
vn -0.6954 -0.5481 -0.4647
vn -0.8161 0.1915 -0.5453
vn -0.4681 0.8264 -0.3128
vn -0.4681 -0.8264 -0.3128
vn -0.8161 -0.1915 -0.5453
vn -0.6954 0.5481 -0.4647
vn -0.1653 0.9800 -0.1104
vn -0.5453 0.1915 -0.8161
vn -0.3128 0.8264 -0.4681
vn -0.3128 -0.8264 -0.4681
vn -0.5453 -0.1915 -0.8161
vn -0.4647 0.5481 -0.6954
vn -0.1104 0.9800 -0.1653
vn -0.1104 -0.9800 -0.1653
vn -0.4647 -0.5481 -0.6954
vn -0.1098 -0.8264 -0.5522
vn -0.1915 -0.1915 -0.9626
vn -0.1632 0.5481 -0.8203
vn -0.0388 0.9800 -0.1949
vn -0.0388 -0.9800 -0.1949
vn -0.1632 -0.5481 -0.8203
vn -0.1915 0.1915 -0.9626
vn -0.1098 0.8264 -0.5522
vt 0.750000 0.750000
vt 0.687500 0.875000
vt 0.687500 0.750000
vt 0.750000 0.250000
vt 0.687500 0.125000
vt 0.750000 0.125000
vt 0.750000 0.500000
vt 0.687500 0.375000
vt 0.750000 0.375000
vt 0.687500 0.625000
vt 0.750000 0.625000
vt 0.750000 0.875000
vt 0.718750 1.000000
vt 0.718750 0.000000
vt 0.687500 0.250000
vt 0.687500 0.500000
vt 0.625000 0.375000
vt 0.625000 0.750000
vt 0.625000 0.625000
vt 0.656250 1.000000
vt 0.625000 0.875000
vt 0.656250 0.000000
vt 0.625000 0.125000
vt 0.625000 0.250000
vt 0.625000 0.500000
vt 0.593750 0.000000
vt 0.562500 0.125000
vt 0.562500 0.250000
vt 0.562500 0.625000
vt 0.562500 0.500000
vt 0.562500 0.750000
vt 0.562500 0.375000
vt 0.593750 1.000000
vt 0.562500 0.875000
vt 0.500000 0.625000
vt 0.500000 0.500000
vt 0.500000 0.750000
vt 0.500000 0.125000
vt 0.500000 0.375000
vt 0.531250 1.000000
vt 0.500000 0.875000
vt 0.531250 0.000000
vt 0.500000 0.250000
vt 0.437500 0.125000
vt 0.437500 0.375000
vt 0.437500 0.625000
vt 0.468750 1.000000
vt 0.437500 0.875000
vt 0.468750 0.000000
vt 0.437500 0.250000
vt 0.437500 0.500000
vt 0.437500 0.750000
vt 0.375000 0.625000
vt 0.406250 1.000000
vt 0.375000 0.875000
vt 0.406250 0.000000
vt 0.375000 0.125000
vt 0.375000 0.375000
vt 0.375000 0.250000
vt 0.375000 0.500000
vt 0.375000 0.750000
vt 0.343750 0.000000
vt 0.312500 0.125000
vt 0.312500 0.375000
vt 0.312500 0.250000
vt 0.312500 0.625000
vt 0.312500 0.500000
vt 0.312500 0.750000
vt 0.343750 1.000000
vt 0.312500 0.875000
vt 0.250000 0.750000
vt 0.250000 0.250000
vt 0.250000 0.125000
vt 0.250000 0.375000
vt 0.250000 0.625000
vt 0.281250 1.000000
vt 0.250000 0.875000
vt 0.281250 0.000000
vt 0.250000 0.500000
vt 0.187500 0.125000
vt 0.187500 0.375000
vt 0.187500 0.625000
vt 0.218750 1.000000
vt 0.187500 0.875000
vt 0.218750 0.000000
vt 0.187500 0.250000
vt 0.187500 0.500000
vt 0.187500 0.750000
vt 0.156250 1.000000
vt 0.125000 0.875000
vt 0.156250 0.000000
vt 0.125000 0.125000
vt 0.125000 0.375000
vt 0.125000 0.250000
vt 0.125000 0.625000
vt 0.125000 0.500000
vt 0.125000 0.750000
vt 0.062500 0.375000
vt 0.062500 0.250000
vt 0.062500 0.625000
vt 0.062500 0.500000
vt 0.062500 0.750000
vt 0.062500 0.125000
vt 0.093750 1.000000
vt 0.062500 0.875000
vt 0.093750 0.000000
vt 0.000000 0.250000
vt 0.000000 0.125000
vt 0.000000 0.375000
vt 0.000000 0.625000
vt 0.031250 1.000000
vt 0.000000 0.875000
vt 0.031250 0.000000
vt 0.000000 0.500000
vt 0.000000 0.750000
vt 1.000000 0.500000
vt 0.937500 0.375000
vt 1.000000 0.375000
vt 1.000000 0.750000
vt 0.937500 0.625000
vt 1.000000 0.625000
vt 1.000000 0.875000
vt 0.968750 1.000000
vt 0.937500 0.875000
vt 0.968750 0.000000
vt 1.000000 0.125000
vt 0.937500 0.125000
vt 1.000000 0.250000
vt 0.937500 0.250000
vt 0.937500 0.500000
vt 0.937500 0.750000
vt 0.906250 0.000000
vt 0.875000 0.125000
vt 0.875000 0.375000
vt 0.875000 0.250000
vt 0.875000 0.625000
vt 0.875000 0.500000
vt 0.875000 0.750000
vt 0.906250 1.000000
vt 0.875000 0.875000
vt 0.812500 0.625000
vt 0.812500 0.500000
vt 0.812500 0.750000
vt 0.812500 0.250000
vt 0.812500 0.125000
vt 0.812500 0.375000
vt 0.843750 1.000000
vt 0.812500 0.875000
vt 0.843750 0.000000
vt 0.781250 1.000000
vt 0.781250 0.000000
f 113/1/1 5/2/1 6/3/1
f 114/4/2 11/5/2 4/6/2
f 2/7/3 9/8/3 3/9/3
f 113/1/4 7/10/4 1/11/4
f 112/12/5 62/13/5 5/2/5
f 61/14/6 4/6/6 11/5/6
f 114/4/7 9/8/7 10/15/7
f 1/11/8 8/16/8 2/7/8
f 8/16/9 16/17/9 9/8/9
f 7/10/10 13/18/10 14/19/10
f 5/2/11 62/20/11 12/21/11
f 61/22/12 11/5/12 18/23/12
f 9/8/13 17/24/13 10/15/13
f 8/16/14 14/19/14 15/25/14
f 5/2/15 13/18/15 6/3/15
f 11/5/16 17/24/16 18/23/16
f 61/26/17 18/23/17 25/27/17
f 16/17/18 24/28/18 17/24/18
f 15/25/19 21/29/19 22/30/19
f 12/21/20 20/31/20 13/18/20
f 18/23/21 24/28/21 25/27/21
f 15/25/22 23/32/22 16/17/22
f 13/18/23 21/29/23 14/19/23
f 12/21/24 62/33/24 19/34/24
f 22/30/25 28/35/25 29/36/25
f 19/34/26 27/37/26 20/31/26
f 24/28/27 32/38/27 25/27/27
f 22/30/28 30/39/28 23/32/28
f 20/31/29 28/35/29 21/29/29
f 19/34/30 62/40/30 26/41/30
f 61/42/31 25/27/31 32/38/31
f 23/32/32 31/43/32 24/28/32
f 31/43/33 39/44/33 32/38/33
f 29/36/34 37/45/34 30/39/34
f 27/37/35 35/46/35 28/35/35
f 26/41/36 62/47/36 33/48/36
f 61/49/37 32/38/37 39/44/37
f 31/43/38 37/45/38 38/50/38
f 29/36/39 35/46/39 36/51/39
f 26/41/40 34/52/40 27/37/40
f 34/52/41 42/53/41 35/46/41
f 33/48/42 62/54/42 40/55/42
f 61/56/43 39/44/43 46/57/43
f 38/50/44 44/58/44 45/59/44
f 36/51/45 42/53/45 43/60/45
f 34/52/46 40/55/46 41/61/46
f 38/50/47 46/57/47 39/44/47
f 36/51/48 44/58/48 37/45/48
f 61/62/49 46/57/49 53/63/49
f 45/59/50 51/64/50 52/65/50
f 43/60/51 49/66/51 50/67/51
f 40/55/52 48/68/52 41/61/52
f 45/59/53 53/63/53 46/57/53
f 43/60/54 51/64/54 44/58/54
f 41/61/55 49/66/55 42/53/55
f 40/55/56 62/69/56 47/70/56
f 47/70/57 55/71/57 48/68/57
f 53/63/58 59/72/58 60/73/58
f 50/67/59 58/74/59 51/64/59
f 48/68/60 56/75/60 49/66/60
f 47/70/61 62/76/61 54/77/61
f 61/78/62 53/63/62 60/73/62
f 52/65/63 58/74/63 59/72/63
f 50/67/64 56/75/64 57/79/64
f 59/72/65 69/80/65 60/73/65
f 57/79/66 67/81/66 58/74/66
f 55/71/67 65/82/67 56/75/67
f 54/77/68 62/83/68 63/84/68
f 61/85/69 60/73/69 69/80/69
f 59/72/70 67/81/70 68/86/70
f 57/79/71 65/82/71 66/87/71
f 55/71/72 63/84/72 64/88/72
f 63/84/73 62/89/73 70/90/73
f 61/91/74 69/80/74 76/92/74
f 68/86/75 74/93/75 75/94/75
f 66/87/76 72/95/76 73/96/76
f 64/88/77 70/90/77 71/97/77
f 68/86/78 76/92/78 69/80/78
f 66/87/79 74/93/79 67/81/79
f 64/88/80 72/95/80 65/82/80
f 75/94/81 81/98/81 82/99/81
f 73/96/82 79/100/82 80/101/82
f 70/90/83 78/102/83 71/97/83
f 75/94/84 83/103/84 76/92/84
f 73/96/85 81/98/85 74/93/85
f 71/97/86 79/100/86 72/95/86
f 70/90/87 62/104/87 77/105/87
f 61/106/88 76/92/88 83/103/88
f 83/103/89 89/107/89 90/108/89
f 80/101/90 88/109/90 81/98/90
f 78/102/91 86/110/91 79/100/91
f 77/105/92 62/111/92 84/112/92
f 61/113/93 83/103/93 90/108/93
f 82/99/94 88/109/94 89/107/94
f 80/101/95 86/110/95 87/114/95
f 77/105/96 85/115/96 78/102/96
f 87/116/97 95/117/97 88/118/97
f 85/119/98 93/120/98 86/121/98
f 84/122/99 62/123/99 91/124/99
f 61/125/100 90/126/100 97/127/100
f 89/128/101 95/117/101 96/129/101
f 87/116/102 93/120/102 94/130/102
f 84/122/103 92/131/103 85/119/103
f 89/128/104 97/127/104 90/126/104
f 61/132/105 97/127/105 104/133/105
f 96/129/106 102/134/106 103/135/106
f 94/130/107 100/136/107 101/137/107
f 91/124/108 99/138/108 92/131/108
f 96/129/109 104/133/109 97/127/109
f 94/130/110 102/134/110 95/117/110
f 92/131/111 100/136/111 93/120/111
f 91/124/112 62/139/112 98/140/112
f 101/137/113 107/141/113 108/142/113
f 98/140/114 106/143/114 99/138/114
f 104/133/115 110/144/115 111/145/115
f 101/137/116 109/146/116 102/134/116
f 99/138/117 107/141/117 100/136/117
f 98/140/118 62/147/118 105/148/118
f 61/149/119 104/133/119 111/145/119
f 103/135/120 109/146/120 110/144/120
f 110/144/121 4/6/121 111/145/121
f 108/142/122 3/9/122 109/146/122
f 106/143/123 1/11/123 107/141/123
f 105/148/124 62/150/124 112/12/124
f 61/151/125 111/145/125 4/6/125
f 110/144/126 3/9/126 114/4/126
f 108/142/127 1/11/127 2/7/127
f 105/148/128 113/1/128 106/143/128
f 113/1/1 112/12/1 5/2/1
f 114/4/2 10/15/2 11/5/2
f 2/7/3 8/16/3 9/8/3
f 113/1/4 6/3/4 7/10/4
f 114/4/7 3/9/7 9/8/7
f 1/11/8 7/10/8 8/16/8
f 8/16/9 15/25/9 16/17/9
f 7/10/10 6/3/10 13/18/10
f 9/8/13 16/17/13 17/24/13
f 8/16/14 7/10/14 14/19/14
f 5/2/15 12/21/15 13/18/15
f 11/5/16 10/15/16 17/24/16
f 16/17/18 23/32/18 24/28/18
f 15/25/19 14/19/19 21/29/19
f 12/21/20 19/34/20 20/31/20
f 18/23/21 17/24/21 24/28/21
f 15/25/22 22/30/22 23/32/22
f 13/18/23 20/31/23 21/29/23
f 22/30/25 21/29/25 28/35/25
f 19/34/26 26/41/26 27/37/26
f 24/28/27 31/43/27 32/38/27
f 22/30/28 29/36/28 30/39/28
f 20/31/29 27/37/29 28/35/29
f 23/32/32 30/39/32 31/43/32
f 31/43/33 38/50/33 39/44/33
f 29/36/34 36/51/34 37/45/34
f 27/37/35 34/52/35 35/46/35
f 31/43/38 30/39/38 37/45/38
f 29/36/39 28/35/39 35/46/39
f 26/41/40 33/48/40 34/52/40
f 34/52/41 41/61/41 42/53/41
f 38/50/44 37/45/44 44/58/44
f 36/51/45 35/46/45 42/53/45
f 34/52/46 33/48/46 40/55/46
f 38/50/47 45/59/47 46/57/47
f 36/51/48 43/60/48 44/58/48
f 45/59/50 44/58/50 51/64/50
f 43/60/51 42/53/51 49/66/51
f 40/55/52 47/70/52 48/68/52
f 45/59/53 52/65/53 53/63/53
f 43/60/54 50/67/54 51/64/54
f 41/61/55 48/68/55 49/66/55
f 47/70/57 54/77/57 55/71/57
f 53/63/58 52/65/58 59/72/58
f 50/67/59 57/79/59 58/74/59
f 48/68/60 55/71/60 56/75/60
f 52/65/63 51/64/63 58/74/63
f 50/67/64 49/66/64 56/75/64
f 59/72/65 68/86/65 69/80/65
f 57/79/66 66/87/66 67/81/66
f 55/71/67 64/88/67 65/82/67
f 59/72/70 58/74/70 67/81/70
f 57/79/71 56/75/71 65/82/71
f 55/71/72 54/77/72 63/84/72
f 68/86/75 67/81/75 74/93/75
f 66/87/76 65/82/76 72/95/76
f 64/88/77 63/84/77 70/90/77
f 68/86/78 75/94/78 76/92/78
f 66/87/79 73/96/79 74/93/79
f 64/88/80 71/97/80 72/95/80
f 75/94/81 74/93/81 81/98/81
f 73/96/82 72/95/82 79/100/82
f 70/90/83 77/105/83 78/102/83
f 75/94/84 82/99/84 83/103/84
f 73/96/85 80/101/85 81/98/85
f 71/97/86 78/102/86 79/100/86
f 83/103/89 82/99/89 89/107/89
f 80/101/90 87/114/90 88/109/90
f 78/102/91 85/115/91 86/110/91
f 82/99/94 81/98/94 88/109/94
f 80/101/95 79/100/95 86/110/95
f 77/105/96 84/112/96 85/115/96
f 87/116/97 94/130/97 95/117/97
f 85/119/98 92/131/98 93/120/98
f 89/128/101 88/118/101 95/117/101
f 87/116/102 86/121/102 93/120/102
f 84/122/103 91/124/103 92/131/103
f 89/128/104 96/129/104 97/127/104
f 96/129/106 95/117/106 102/134/106
f 94/130/107 93/120/107 100/136/107
f 91/124/108 98/140/108 99/138/108
f 96/129/109 103/135/109 104/133/109
f 94/130/110 101/137/110 102/134/110
f 92/131/111 99/138/111 100/136/111
f 101/137/113 100/136/113 107/141/113
f 98/140/114 105/148/114 106/143/114
f 104/133/115 103/135/115 110/144/115
f 101/137/116 108/142/116 109/146/116
f 99/138/117 106/143/117 107/141/117
f 103/135/120 102/134/120 109/146/120
f 110/144/121 114/4/121 4/6/121
f 108/142/122 2/7/122 3/9/122
f 106/143/123 113/1/123 1/11/123
f 110/144/126 109/146/126 3/9/126
f 108/142/127 107/141/127 1/11/127
f 105/148/128 112/12/128 113/1/128